<?xml version="1.0" encoding="UTF-8" standalone="no"?>
<!-- Created with Inkscape (http://www.inkscape.org/) -->

<svg
   xmlns:dc="http://purl.org/dc/elements/1.1/"
   xmlns:cc="http://creativecommons.org/ns#"
   xmlns:rdf="http://www.w3.org/1999/02/22-rdf-syntax-ns#"
   xmlns:svg="http://www.w3.org/2000/svg"
   xmlns="http://www.w3.org/2000/svg"
   xmlns:sodipodi="http://sodipodi.sourceforge.net/DTD/sodipodi-0.dtd"
   xmlns:inkscape="http://www.inkscape.org/namespaces/inkscape"
   width="280"
   height="260"
   viewBox="0 0 280 260"
   id="svg4902"
   version="1.1"
   inkscape:version="0.91 r13725"
   sodipodi:docname="feed-reader.svg">
  <defs
     id="defs4904" />
  <sodipodi:namedview
     id="base"
     pagecolor="#ffffff"
     bordercolor="#666666"
     borderopacity="1.0"
     inkscape:pageopacity="0.0"
     inkscape:pageshadow="2"
     inkscape:zoom="1.4142136"
     inkscape:cx="35.60225"
     inkscape:cy="180.78358"
     inkscape:document-units="px"
     inkscape:current-layer="layer1"
     showgrid="true"
     units="px"
     inkscape:showpageshadow="false"
     inkscape:window-width="1440"
     inkscape:window-height="851"
     inkscape:window-x="0"
     inkscape:window-y="0"
     inkscape:window-maximized="1"
     inkscape:snap-text-baseline="true">
    <inkscape:grid
       type="axonomgrid"
       id="grid4910"
       units="mm"
       empspacing="2" />
  </sodipodi:namedview>
  <metadata
     id="metadata4907">
    <rdf:RDF>
      <cc:Work
         rdf:about="">
        <dc:format>image/svg+xml</dc:format>
        <dc:type
           rdf:resource="http://purl.org/dc/dcmitype/StillImage" />
        <dc:title></dc:title>
      </cc:Work>
    </rdf:RDF>
  </metadata>
  <g
     inkscape:label="Layer 1"
     inkscape:groupmode="layer"
     id="layer1"
     transform="translate(0,-792.36216)">
    <text
       xml:space="preserve"
       style="font-style:italic;font-weight:bold;font-size:25px;line-height:125%;font-family:sans-serif;letter-spacing:0px;word-spacing:0px;fill:#000000;fill-opacity:1;stroke:none;stroke-width:1px;stroke-linecap:butt;stroke-linejoin:miter;stroke-opacity:1;-inkscape-font-specification:'sans-serif Bold Italic';font-stretch:normal;font-variant:normal;"
       x="61.37188"
       y="818.50391"
       id="text6479"
       sodipodi:linespacing="125%"><tspan
         sodipodi:role="line"
         id="tspan6481"
         x="61.37188"
         y="818.50391" /></text>
    <g
       id="g6637"
       transform="matrix(0.67236537,-0.73891989,0.84291878,0.76699709,-730.45326,299.9515)">
      <g
         transform="translate(40,12)"
         id="g6606">
        <path
           style="opacity:0.86000001;fill:#c2281b;fill-opacity:1;stroke:#c2281b;stroke-width:4.4000001;stroke-miterlimit:4;stroke-dasharray:none;stroke-opacity:1"
           id="path6512"
           d="m 47.960347,836.96841 c 1.975031,0.9766 3.204661,2.41908 3.980894,4.45168 0.844971,2.49065 0.468206,4.18473 -0.845713,6.39158 -2.577815,3.0007 -6.284189,4.80815 -9.84508,6.42533 -1.610211,0.613 -3.116886,1.06203 -4.192153,-0.54442 -0.699716,-1.74632 -0.685682,-3.66711 -0.712413,-5.52031 -0.133272,-1.81854 0.07541,-3.58382 0.434895,-5.36096 0.12803,-1.43524 0.930627,-2.54575 1.651602,-3.73126 1.781612,-2.458 4.935332,-3.59227 7.420773,-5.03858 1.506412,-0.87659 -3.022091,1.73717 -4.533137,2.60576 1.121328,-0.94705 2.199034,-1.91553 3.407181,-2.75915 2.847794,-2.10603 5.979072,-3.69293 9.245499,-4.96921 1.888951,-0.75274 3.878577,-1.02278 5.886776,-1.20332 1.735414,-0.0865 3.473453,-0.11155 5.210821,-0.10821 1.788794,-0.0414 3.460989,0.7001 5.121241,1.27602 1.572015,0.77428 2.647195,2.20462 3.96393,3.31279 1.203985,1.17947 2.490301,2.26402 3.766204,3.36598 1.512666,1.4976 2.765328,3.21233 3.89327,5.00994 1.398193,1.70815 2.186145,3.77081 2.960628,5.81162 0.71057,1.92636 0.768313,3.97705 0.832966,6.00399 0.386316,2.37517 0.676875,4.74765 0.814115,7.15224 0.177588,3.48349 0.150003,6.97277 0.161724,10.4595 -0.09024,3.20744 -0.0963,6.33913 0.731047,9.44925 0.736606,2.86051 1.053735,5.77822 1.168857,8.72052 0.09555,5.37653 0.05211,10.7546 0.06177,16.13181 -0.0057,4.94711 0.01617,9.89417 0.03016,14.84124 0.182731,3.52434 -0.02178,6.9646 -0.699034,10.4208 -0.977121,4.1784 -2.204688,8.29325 -3.173596,12.47371 -1.011286,4.17218 -2.041883,8.34364 -3.192024,12.48019 -1.442112,3.9091 -2.64914,7.89884 -4.012377,11.83404 -1.580158,4.1964 -3.267199,8.35349 -4.813447,12.56247 -1.560006,3.83783 -3.08404,7.68726 -4.61002,11.53899 -2.071294,4.01759 -5.751743,6.9523 -8.92229,10.08856 -3.416165,3.4084 -6.654486,6.9891 -9.854097,10.6001 -2.006127,2.1316 -4.010331,4.2545 -6.390861,5.9713 -3.333095,2.033 -6.398678,4.0417 -10.186612,4.7843 -1.942047,0.2219 -3.901064,0.2102 -5.852905,0.2154 -1.797448,0.085 -3.592288,-0.1054 -5.25373,-0.8181 -1.235753,-0.7353 -1.845104,-1.9974 -2.536364,-3.1984 -0.588063,-1.5081 -0.640232,-3.1426 -0.700063,-4.7404 -0.123964,-2.0761 0.621997,-4.0506 1.140167,-6.0279 0.732994,-1.9785 1.707322,-3.8398 3.20972,-5.3326 2.860846,-2.25299 5.976701,-4.08041 9.575564,-4.36943 1.521614,-0.14562 2.943791,-0.0208 4.326242,0.64813 1.324351,0.55755 2.27108,1.6651 3.221686,2.7001 1.09507,1.2306 1.389185,2.774 1.650191,4.3465 0.248247,1.7529 0.210246,3.3652 -0.638728,4.942 -1.19297,1.5555 -2.69041,2.8631 -4.198477,4.1055 -3.035118,1.8401 -6.347224,4.9002 -10.146373,4.3476 -1.619976,-0.4497 -2.343458,-1.4688 -2.846251,-2.9968 -0.373446,-1.7245 -0.368291,-3.4733 0.69734,-4.9291 2.881638,-2.3241 6.28393,-3.6909 9.776222,-4.6825 1.887137,-0.5002 3.087947,0.2298 3.963092,1.8607 0.305272,0.8272 0.376975,1.7052 0.471278,2.5734 0,0 -5.238531,2.7342 -5.238531,2.7342 l 0,0 c -0.06975,-0.7954 -0.120774,-1.5996 -0.378424,-2.3627 -0.771453,-1.4898 -1.920934,-1.6884 -3.501798,-1.1947 -0.762183,0.2283 -1.508844,0.4957 -2.267134,0.7356 -0.268254,0.085 -1.04089,0.4014 -0.808276,0.2431 2.819114,-1.9182 5.971,-3.4058 3.439138,-2.1862 -1.322168,1.0636 -1.246128,2.7986 -0.955251,4.357 0.400693,1.339 1.017433,2.1694 2.478281,2.4112 2.588909,0.1244 6.729718,-2.8553 -1.050482,1.8109 -0.300715,0.1803 0.604471,-0.3556 0.906706,-0.5334 1.531281,-1.1653 2.93211,-2.5138 4.254922,-3.9094 1.014639,-1.404 1.02767,-2.8805 0.80371,-4.5574 -0.198883,-1.4678 -0.43923,-2.9028 -1.473482,-4.0387 -0.915584,-0.9732 -1.805641,-2.0089 -3.089379,-2.498 -1.345829,-0.5259 -2.72738,-0.5613 -4.155175,-0.3931 -0.696649,0.09 -1.377663,0.1945 -2.049512,0.4106 -0.253655,0.082 -0.972487,0.4246 -0.74887,0.2797 1.684763,-1.0917 6.168341,-3.64015 3.442794,-2.08637 -1.606629,1.33147 -2.547715,3.13727 -3.37304,5.03097 -0.487255,1.9262 -1.24906,3.8479 -1.180956,5.86 0.04588,1.504 0.06872,3.0479 0.588424,4.4783 0.602563,1.0945 1.151973,2.2599 2.306956,2.8641 1.647413,0.585 3.357398,0.7464 5.100923,0.6517 1.935825,-0.013 3.887711,0 5.801627,-0.3258 2.396751,-0.5353 8.625158,-3.7773 -0.0024,0.9456 2.457333,-1.6489 4.499992,-3.7434 6.53421,-5.8809 3.241547,-3.6294 6.505429,-7.2409 9.951365,-10.6785 3.098542,-3.10187 6.644238,-5.98553 8.866519,-9.80951 1.568336,-3.84888 3.133407,-7.69632 4.681573,-11.55302 1.545833,-4.20765 3.216146,-8.36977 4.818994,-12.55559 1.387759,-3.9115 2.491096,-7.92328 4.007005,-11.79303 1.195006,-4.1167 2.192906,-8.29232 3.208341,-12.45599 0.958725,-4.16942 2.20412,-8.26733 3.148338,-12.44085 0.681535,-3.43118 0.962686,-6.82963 0.781018,-10.33591 0.02003,-4.96097 0.0524,-9.92191 0.05241,-14.88295 0.01024,-5.35081 0.0189,-10.70358 -0.160471,-16.05206 -0.148307,-2.89023 -0.418399,-5.77744 -1.154816,-8.58693 -0.847541,-3.21632 -0.852942,-6.29692 -0.739993,-9.6131 -0.0071,-3.47018 -0.02634,-6.94218 -0.186628,-10.40925 -0.1519,-2.40307 -0.453249,-4.77569 -0.86046,-7.14801 -0.05602,-1.96362 -0.107539,-3.95277 -0.752788,-5.83054 -0.727578,-2.01778 -1.535819,-4.02198 -2.887383,-5.71327 -1.099391,-1.74427 -2.337862,-3.40439 -3.820666,-4.84521 -1.290294,-1.08625 -2.562476,-2.18837 -3.772416,-3.36367 -1.244878,-1.08427 -2.304691,-2.44309 -3.844579,-3.12896 -1.624191,-0.57503 -3.265891,-1.20136 -5.021076,-1.10288 -1.720515,0.003 -3.443797,-0.003 -5.159779,0.13998 -1.98191,0.19736 -3.931526,0.56642 -5.783857,1.32776 -0.420454,0.16006 -1.302845,0.48576 -1.730984,0.6857 -0.225752,0.10543 -0.874644,0.47736 -0.66009,0.35069 8.03302,-4.74254 5.021337,-2.94031 3.288161,-1.89254 -1.147372,0.91554 -2.462786,1.61839 -3.377763,2.8178 -9.704756,5.60371 -5.419447,3.14062 -1.05721,0.58277 0.928858,-0.54464 -2.898718,1.82032 -1.942063,1.57748 -0.685933,1.14773 -1.606043,2.18149 -1.754501,3.56195 -0.390196,1.74129 -0.640578,3.45881 -0.512332,5.25164 0.02493,1.73611 -0.01547,3.54115 0.580434,5.1949 0.900497,1.24 2.554591,0.29671 3.698621,-0.13088 1.829838,-0.92827 5.311212,-2.96816 -2.734174,1.67911 -0.29978,0.17317 0.603718,-0.34178 0.884752,-0.54395 0.637101,-0.45832 1.127871,-0.97048 1.691621,-1.51277 1.40056,-2.0032 1.863494,-3.50849 1.085686,-5.89816 -0.710238,-1.91766 -1.897607,-3.21913 -3.799656,-4.04497 0,0 4.963756,-3.26597 4.963756,-3.26597 z"
           inkscape:connector-curvature="0" />
        <path
           inkscape:connector-curvature="0"
           style="opacity:0.86000001;fill:none;fill-opacity:1;stroke:#c2281b;stroke-width:4.4000001;stroke-miterlimit:4;stroke-dasharray:none;stroke-opacity:1"
           d="m 137.03443,38.72609 c -0.24924,-0.01371 -0.50055,-0.01461 -0.75424,-3.8e-4 -1.72052,0.003 -3.4438,-0.003 -5.15978,0.13998 -1.57376,0.156716 -3.12716,0.421694 -4.62765,0.905376"
           id="path6548"
           transform="translate(0,792.36216)" />
        <path
           inkscape:connector-curvature="0"
           style="opacity:0.86000001;fill:none;fill-opacity:1;stroke:#c2281b;stroke-width:4.4000001;stroke-miterlimit:4;stroke-dasharray:none;stroke-opacity:1"
           d="m 101.7008,225.02053 c 0.24002,0.23838 0.51221,0.44738 0.83035,0.61381 1.64741,0.585 3.3574,0.7464 5.10092,0.6517 1.93583,-0.013 3.88771,0 5.80163,-0.3258 2.39675,-0.5353 8.62516,-3.7773 -0.002,0.9456 2.45733,-1.6489 4.49999,-3.7434 6.53421,-5.8809 3.24155,-3.6294 6.50543,-7.2409 9.95136,-10.6785 3.09855,-3.10187 6.64424,-5.98553 8.86652,-9.80951 1.56834,-3.84888 3.13341,-7.69632 4.68158,-11.55302 1.54583,-4.20765 3.21614,-8.36977 4.81899,-12.55559 1.38776,-3.9115 2.49109,-7.92328 4.007,-11.79303 1.19501,-4.1167 2.19291,-8.29232 3.20835,-12.45599 0.95872,-4.16942 2.20412,-8.26733 3.14833,-12.44085 0.68154,-3.43118 0.96269,-6.82963 0.78102,-10.33591 0.02,-4.96097 0.0524,-9.92191 0.0524,-14.88295 0.0102,-5.35081 0.0189,-10.70358 -0.16047,-16.05206 -0.14831,-2.89023 -0.4184,-5.77744 -1.15482,-8.58693 -0.84754,-3.21632 -0.85294,-6.29692 -0.73999,-9.6131 -0.007,-3.47018 -0.0263,-6.94218 -0.18663,-10.40925 -0.1519,-2.40307 -0.45325,-4.77569 -0.86046,-7.14801 -0.056,-1.96362 -0.10754,-3.95277 -0.75278,-5.83054 -0.72758,-2.01778 -1.53582,-4.02198 -2.88739,-5.71327 -1.09939,-1.74427 -2.33786,-3.40439 -3.82066,-4.84521 -1.2903,-1.08625 -2.56248,-2.18837 -3.77242,-3.36367 -1.24488,-1.08427 -2.30469,-2.44309 -3.84458,-3.12896 -1.38944,-0.491917 -2.79169,-1.021377 -4.26683,-1.1025"
           id="path6573"
           transform="translate(0,792.36216)" />
        <path
           inkscape:connector-curvature="0"
           style="opacity:0.86000001;fill:none;fill-opacity:1;stroke:#c2281b;stroke-width:4.4000001;stroke-miterlimit:4;stroke-dasharray:none;stroke-opacity:1"
           d="m 129.52089,36.735592 c 0.1503,-0.0603 0.30091,-0.119924 0.4518,-0.178882 1.88896,-0.75274 3.87858,-1.02278 5.88678,-1.20332 1.73541,-0.0865 3.47345,-0.11155 5.21082,-0.10821 1.7888,-0.0414 3.46099,0.7001 5.12124,1.27602 1.57202,0.77428 2.6472,2.20462 3.96393,3.31279 1.20399,1.17947 2.4903,2.26402 3.76621,3.36598 1.51266,1.4976 2.76532,3.21233 3.89327,5.00994 1.39819,1.70815 2.18614,3.77081 2.96063,5.81162 0.71057,1.92636 0.76831,3.97705 0.83296,6.00399 0.38632,2.37517 0.67688,4.74765 0.81412,7.15224 0.17758,3.48349 0.15,6.97277 0.16172,10.4595 -0.0902,3.20744 -0.0963,6.33913 0.73105,9.44925 0.7366,2.86051 1.05373,5.77822 1.16885,8.72052 0.0956,5.37653 0.0521,10.7546 0.0618,16.13181 -0.006,4.94711 0.0162,9.89417 0.0302,14.84124 0.18273,3.52434 -0.0218,6.9646 -0.69903,10.4208 -0.97712,4.1784 -2.20469,8.29325 -3.1736,12.47371 -1.01128,4.17218 -2.04188,8.34364 -3.19202,12.48019 -1.44211,3.9091 -2.64914,7.89884 -4.01238,11.83404 -1.58015,4.1964 -3.2672,8.35349 -4.81344,12.56247 -1.56001,3.83783 -3.08404,7.68726 -4.61002,11.53899 -2.0713,4.01759 -5.75175,6.9523 -8.92229,10.08856 -3.41617,3.4084 -6.65449,6.9891 -9.8541,10.6001 -2.00613,2.1316 -4.01033,4.2545 -6.39086,5.9713 -3.3331,2.033 -6.39868,4.0417 -10.18661,4.7843 -1.94205,0.2219 -3.90107,0.2102 -5.85291,0.2154 -1.79745,0.085 -3.592287,-0.1054 -5.253729,-0.8181 -1.235753,-0.7353 -1.845104,-1.9974 -2.536364,-3.1984 -0.09898,-0.25383 -0.182775,-0.51125 -0.253983,-0.77146"
           id="path6546"
           transform="translate(0,792.36216)" />
        <path
           style="opacity:0.86000001;fill:#c2281b;fill-opacity:1;stroke:#c2281b;stroke-width:4.4000001;stroke-miterlimit:4;stroke-dasharray:none;stroke-opacity:1"
           id="path6516"
           d="m 71.202296,828.47248 c 3.386934,-0.79499 6.727371,-1.71979 10.164362,-2.28939 2.517802,-0.39326 5.063057,-0.52429 7.607485,-0.56303 1.85547,-0.0205 3.711157,-0.004 5.566732,-0.006 1.820166,0.0171 3.640415,0.009 5.460605,0.0146 1.77683,-0.005 3.55368,-0.002 5.33051,-2.8e-4 1.82444,0.0821 3.60013,-0.0208 5.39681,-0.31825 1.69886,-0.37164 3.41776,-0.5431 5.15021,-0.63364 1.92474,-0.0493 3.78347,-0.60493 5.69775,-0.80534 2.12765,-0.58544 4.34425,-0.72599 6.48419,-1.22575 1.95427,-0.52017 3.9501,-0.7998 5.96412,-0.92807 1.73279,-0.10181 3.47009,-0.10196 5.20541,-0.1056 1.81438,-0.0196 3.59088,-0.066 5.36483,0.34593 1.25466,0.55772 2.23645,1.4702 3.09609,2.52018 1.35737,1.52578 2.58886,3.09827 3.54218,4.90924 0.57185,1.3926 0.31459,0.71357 0.77934,2.03418 0,0 -5.15917,2.8454 -5.15917,2.8454 l 0,0 c -0.42065,-1.28337 -0.18387,-0.62794 -0.71824,-1.96339 -0.93267,-1.78095 -2.18212,-3.29607 -3.53622,-4.77496 -0.77451,-0.95071 -1.68851,-1.78095 -2.8628,-2.19724 -1.74771,-0.35392 -3.52003,-0.23421 -5.29469,-0.23903 -1.71967,0.002 -3.44061,0.002 -5.15712,0.12275 -1.99569,0.16615 -3.96643,0.49666 -5.90944,0.98747 -2.16864,0.41788 -4.36201,0.70795 -6.52045,1.18684 -1.91309,0.26072 -3.79683,0.76127 -5.73611,0.78755 -1.71389,0.10589 -3.40873,0.35016 -5.09633,0.66756 -1.81648,0.27679 -3.62675,0.29936 -5.4626,0.25142 -1.776239,10e-4 -3.55249,0.005 -5.328724,-10e-4 -1.82653,0.004 -3.653086,-0.007 -5.479632,-0.003 -1.843175,-0.0178 -3.686458,-0.0256 -5.529657,-0.005 -2.50932,0.054 -5.020349,0.1877 -7.501108,0.59312 -3.460888,0.60044 -6.822748,1.57588 -10.248284,2.33326 0,0 4.729951,-3.54013 4.729951,-3.54013 z"
           inkscape:connector-curvature="0" />
        <path
           inkscape:connector-curvature="0"
           style="opacity:0.86000001;fill:none;fill-opacity:1;stroke:#c2281b;stroke-width:4.4000001;stroke-miterlimit:4;stroke-dasharray:none;stroke-opacity:1"
           d="m 40.227548,227.26344 c 4.473717,0.5018 8.973717,0.711 13.470361,0.8761 3.495693,0.1182 6.993589,0.142 10.490977,0.1478 2.277106,1e-4 4.554141,-0.013 6.831236,-0.015 l 6.274979,0 c 2.260215,-0.1692 4.448272,0.1338 6.668883,0.4871 2.002726,0.3164 4.028124,0.4249 6.052137,0.4821 1.632128,0.034 3.264621,0.024 4.896967,0.024 1.773847,2e-4 3.547694,9e-4 5.321542,0.001 1.91093,0.015 3.82181,-0.01 5.73273,-0.01 1.13374,9e-4 2.26747,0 3.4012,0 l -4.77455,3.4689 0,0 c -1.13744,0.001 -2.27487,0 -3.41231,0 -1.905429,-8e-4 -3.81083,-0.022 -5.71626,-0.01 -1.77995,0 -3.559894,0.01 -5.339836,0.012 -1.628451,0 -3.257323,0 -4.885083,-0.055 -2.038538,-0.07 -4.074905,-0.2151 -6.089888,-0.5462 -2.196699,-0.3465 -4.376604,-0.5469 -6.606292,-0.4182 -2.095492,0.01 -4.190929,0.01 -6.286444,0.01 -2.266376,0 -4.532735,-6e-4 -6.799094,-0.013 -3.475195,-0.023 -6.950039,-0.083 -10.42276,-0.2229 -4.533104,-0.1986 -9.060727,-0.4769 -13.588949,-0.7615 l 4.780454,-3.4732 0,0.016 z"
           id="path6518"
           transform="translate(0,792.36216)" />
        <path
           style="opacity:0.86000001;fill:#c2281b;fill-opacity:1;stroke:#c2281b;stroke-width:1.55563498;stroke-miterlimit:4;stroke-dasharray:none;stroke-opacity:1"
           d="m 78.336226,234.43311 c -2.15337,-0.28983 -7.799663,-0.46012 -15.733126,-0.4745 -11.911183,-0.0216 -33.040423,-0.94526 -33.410795,-1.46056 -0.09723,-0.13527 -1.615926,-0.32602 -3.374886,-0.42389 -5.372395,-0.29891 -7.88694,-2.05404 -9.179745,-6.40739 -1.448011,-4.87598 0.234855,-12.85728 3.538914,-16.78393 1.259032,-1.49628 5.203355,-4.04174 7.77828,-5.0197 2.700607,-1.0257 7.429232,-1.13739 9.465429,-0.22357 1.766283,0.79268 3.983166,2.82971 5.037519,4.62883 1.170607,1.99749 1.830813,6.0011 1.341912,8.1376 l -0.375127,1.63931 2.501847,-2.75738 c 1.376015,-1.51656 4.942099,-5.22374 7.924625,-8.23818 2.982531,-3.01444 5.732307,-5.96966 6.110619,-6.56716 1.556484,-2.4583 9.434767,-22.77648 12.670191,-32.67655 2.541232,-7.77592 7.608161,-27.52437 8.191715,-31.92735 0.288683,-2.17817 0.364616,-8.70651 0.252897,-21.74353 C 80.91875,95.72682 80.905661,95.447877 79.98009,90.772555 79.146585,86.562289 79.043036,85.217828 79.040649,78.574963 79.039175,74.468786 78.877509,69.75685 78.681393,68.103987 78.485277,66.451125 78.169169,63.517402 77.978925,61.584603 77.590564,57.638994 76.608747,55.113423 74.039195,51.450274 71.940353,48.458172 65.026797,42.19652 63.226482,41.657132 60.383248,40.805279 51.881633,41.340564 50.024446,42.488368 c -0.159217,0.0984 0.431644,0.843626 1.313025,1.656054 2.124984,1.95874 3.025417,3.812792 3.229011,6.648743 0.332329,4.62922 -2.378075,8.105569 -9.013377,11.5605 -5.534726,2.881873 -7.625731,3.11729 -9.655906,1.087116 -1.369025,-1.369026 -1.763645,-3.021942 -1.815373,-7.603928 -0.08313,-7.363344 1.230271,-10.216174 6.534715,-14.194036 8.300921,-6.224955 12.996004,-8.185274 20.861524,-8.710223 3.038201,-0.202772 4.346882,-0.132437 6.363961,0.342028 2.518368,0.59238 2.570461,0.589766 6.335012,-0.317894 l 3.79576,-0.915186 36.378972,0 36.37897,0 0.93945,1.231667 c 1.18318,1.551233 2.60242,4.576105 2.90567,6.192954 0.14231,0.758723 0.86162,1.929137 1.85937,3.025427 4.47095,4.91249 6.91697,10.038477 7.45824,15.629776 0.18326,1.893036 0.49472,4.953324 0.69214,6.800641 0.19742,1.847316 0.3617,6.722096 0.36507,10.832848 0.005,6.224491 0.12992,8.05693 0.74658,10.960155 0.50423,2.373934 0.83612,5.741887 1.04035,10.557132 0.43521,10.261318 0.40619,33.028948 -0.0469,36.769548 -0.56451,4.66072 -6.30027,26.92166 -8.93455,34.6757 -3.79732,11.17747 -11.01714,29.70525 -12.52646,32.1459 -0.48102,0.77781 -3.67708,4.2851 -7.10237,7.79396 -3.42529,3.50886 -8.41602,8.70754 -11.09051,11.55263 -3.0823,3.27889 -5.7605,5.76971 -7.31474,6.80297 -2.45392,1.63136 -8.05432,4.4328 -8.86168,4.4328 -0.23587,0 -1.52255,0.7955 -2.85931,1.76777 l -2.43045,1.76777 -11.937847,-0.048 c -7.427432,-0.0299 -13.206859,-0.21881 -15.296597,-0.50008 z m 14.324937,-8.27177 c -0.185174,-0.58344 0.06302,-0.7717 1.631334,-1.23744 2.510519,-0.74554 2.615963,-0.72475 3.489166,0.68812 0.420629,0.68059 1.025223,1.23744 1.343541,1.23744 0.318322,0 1.383376,-0.79462 2.366796,-1.76582 1.71597,-1.69465 1.83742,-1.75164 3.01398,-1.41421 1.57195,0.45083 5.3691,0.45089 7.8115,1.3e-4 1.80104,-0.33239 2.09634,-0.55098 5.43995,-4.02666 1.94454,-2.02136 6.71751,-6.96856 10.6066,-10.99377 3.88909,-4.02522 7.35581,-7.767 7.70384,-8.31506 1.36671,-2.15229 8.40861,-20.23904 11.97621,-30.76026 2.66966,-7.87312 8.20091,-29.12827 8.77823,-33.73247 0.46842,-3.73579 0.45966,-32.76677 -0.0117,-38.606243 -0.20238,-2.507532 -0.6163,-5.434194 -0.91982,-6.503693 -0.41338,-1.45665 -0.61866,-4.704314 -0.81815,-12.943837 -0.14647,-6.049613 -0.36657,-11.161529 -0.48912,-11.359815 -0.12255,-0.198287 -0.37778,-2.089862 -0.56718,-4.203502 -0.40817,-4.554946 -0.93534,-6.075897 -3.42864,-9.892165 -2.52059,-3.858012 -9.22718,-10.075467 -11.57814,-10.733695 -1.60741,-0.450047 -9.18481,-0.335382 -11.18403,0.169242 -0.82183,0.207439 -0.92925,0.09098 -1.3651,-1.480099 -0.26019,-0.937889 -0.54937,-1.967868 -0.64263,-2.288841 -0.12565,-0.432493 0.13625,-0.645286 1.01155,-0.821891 2.54689,-0.513869 2.69387,-0.618629 2.12507,-1.514608 -0.2188,-0.344652 -0.71668,-0.361421 -2.20429,-0.07424 -15.59778,3.011111 -17.91592,3.247374 -34.625352,3.528994 -7.875401,0.132732 -14.393865,0.265605 -14.485475,0.295274 -0.09161,0.02967 0.810716,1.048312 2.005168,2.263651 4.930274,5.016495 7.659458,10.471487 8.231996,16.453816 0.180733,1.888459 0.493292,4.865454 0.694569,6.615543 0.201278,1.75009 0.372557,6.682159 0.380622,10.960155 0.01301,6.90995 0.113798,8.251753 0.902802,12.020816 0.865729,4.135588 0.893458,4.724378 1.099067,23.334518 0.150875,13.65628 0.0922,20.0974 -0.20609,22.62363 -0.602897,5.10599 -6.256566,27.02297 -9.178296,35.58054 -3.870727,11.33713 -10.810287,29.08095 -12.331892,31.53153 -0.460122,0.74104 -4.209333,4.85886 -8.331578,9.15071 -4.122245,4.29186 -9.117184,9.49267 -11.099864,11.55736 l -3.604874,3.75398 2.367438,0.22125 c 1.30209,0.12169 8.970047,0.25469 17.039903,0.29556 9.701438,0.0491 15.750521,0.22864 17.854446,0.52982 1.75009,0.25053 4.584817,0.47549 6.299399,0.49993 2.937562,0.0419 3.104817,0.005 2.899014,-0.64369 z M 31.136848,212.19712 c 0.590493,-0.20414 0.619647,-0.29351 0.176777,-0.54194 -0.291681,-0.16362 -1.087177,-0.40005 -1.767767,-0.5254 -1.306874,-0.2407 -1.713365,0.10496 -2.472981,2.1029 l -0.316249,0.83179 1.836557,-0.81145 c 1.010106,-0.44629 2.154755,-0.92145 2.543663,-1.0559 z M 162.02527,110.00006 c -0.13412,-17.752272 -0.18277,-18.924372 -0.92433,-22.273859 -0.60497,-2.732491 -0.78143,-4.659795 -0.77691,-8.485282 0.003,-2.722361 -0.14084,-7.415782 -0.32013,-10.429825 -0.76221,-12.813301 -1.21175,-14.821397 -4.38593,-19.591893 -2.46024,-3.697505 -6.21751,-7.285607 -6.21751,-5.937564 0,0.153968 0.72833,0.989238 1.61852,1.856156 3.97513,3.871227 7.54131,11.012497 7.58453,15.18802 0.0111,1.069499 0.17832,2.660489 0.37166,3.535534 0.19334,0.875044 0.4901,6.52306 0.65946,12.551145 0.21683,7.717286 0.46639,11.587808 0.84347,13.081476 1.04159,4.12589 1.29743,9.165472 1.36788,26.944512 0.0391,9.87622 0.12733,16.68398 0.19601,15.12834 0.0687,-1.55563 0.0611,-11.26067 -0.0167,-21.56676 l 10e-6,0 z M 44.737826,53.961852 c 0,-0.486136 -0.154226,-1.122532 -0.342725,-1.414214 -0.244006,-0.377571 -0.342726,0.02979 -0.342726,1.414214 0,1.384427 0.09872,1.791784 0.342726,1.414213 0.188499,-0.291681 0.342725,-0.928077 0.342725,-1.414213 z"
           id="path6604"
           inkscape:connector-curvature="0"
           transform="translate(0,792.36216)" />
      </g>
      <path
         inkscape:connector-curvature="0"
         d="m 135.27992,870.52238 c 2.53989,0.0234 5.07994,0.0222 7.61991,0.018 2.45154,-0.005 4.90309,-10e-4 7.35463,-0.003 2.15868,-0.002 4.31735,-10e-4 6.47603,-0.005 2.17544,0.007 4.35089,-5.7e-4 6.52634,0.004 1.91819,10e-4 3.83637,-0.006 5.75456,-0.007 1.23239,-0.004 2.46476,-0.004 3.69714,-0.006 1.42297,-0.0311 2.85402,0.0959 4.26707,-0.0935 1.23172,-0.21477 2.47143,-0.37932 3.71637,-0.49297 0,0 -2.23143,1.65374 -2.23143,1.65374 l 0,0 c -1.2426,0.12266 -2.47824,0.29691 -3.71094,0.49577 -1.42749,0.13761 -2.86384,0.0459 -4.29652,0.0756 -1.22726,-10e-4 -2.4545,-10e-4 -3.68175,-0.006 -1.91209,-10e-4 -3.82416,-0.008 -5.73626,-0.007 -2.17867,0.004 -4.35736,-0.003 -6.53604,0.003 -2.15433,-0.003 -4.30865,-0.003 -6.46297,-0.005 -2.44836,-0.002 -4.89672,0.002 -7.34508,-0.004 -2.55652,-0.004 -5.11311,-0.005 -7.66955,0.018 0,0 2.25849,-1.64088 2.25849,-1.64088 z"
         id="path6615"
         style="opacity:0.86000001;fill:#c2281b;fill-opacity:1;stroke:#c2281b;stroke-width:4.4000001;stroke-miterlimit:4;stroke-dasharray:none;stroke-opacity:1" />
      <path
         inkscape:connector-curvature="0"
         d="m 143.6831,883.2485 c 3.4585,0.0329 6.91722,0.0384 10.37585,0.0448 5.19271,0.0108 10.38541,0.002 15.57811,-0.004 3.5254,-0.006 7.0508,-0.01 10.57619,-0.0214 0.99284,0.0167 1.96972,0.0153 2.95438,-0.10671 0,0 -2.22339,1.65095 -2.22339,1.65095 l 0,0 c -0.98105,0.0832 -1.95755,0.0815 -2.94242,0.0625 -3.50572,-0.0115 -7.01145,-0.0156 -10.51718,-0.0214 -5.18863,-0.007 -10.37726,-0.0153 -15.56589,-0.004 -3.49972,0.006 -6.99951,0.0122 -10.4991,0.0448 0,0 2.26345,-1.64449 2.26345,-1.64449 z"
         id="path6617"
         style="opacity:0.86000001;fill:#c2281b;fill-opacity:1;stroke:#c2281b;stroke-width:4.4000001;stroke-miterlimit:4;stroke-dasharray:none;stroke-opacity:1" />
      <path
         inkscape:connector-curvature="0"
         d="m 144.63651,895.98183 c 3.55969,0.0294 7.11959,0.0289 10.67938,0.0334 4.11771,3.3e-4 8.23542,-0.006 12.35312,-0.007 3.1739,0.0483 6.34122,-0.23838 9.47125,-0.74375 2.21585,-0.25854 4.38357,-0.67838 6.55323,-1.18514 1.38398,-0.3861 2.79192,-0.66409 4.20242,-0.93039 0,0 -2.17038,1.64073 -2.17038,1.64073 l 0,0 c -1.41309,0.27634 -2.82243,0.56762 -4.21137,0.95119 -2.16964,0.51268 -4.346,0.89484 -6.5602,1.16487 -3.12896,0.48099 -6.29329,0.7357 -9.46139,0.68377 -4.1111,-10e-4 -8.2222,-0.008 -12.3333,-0.007 -3.59044,0.004 -7.18098,0.004 -10.77133,0.0334 0,0 2.24857,-1.63368 2.24857,-1.63368 z"
         id="path6619"
         style="opacity:0.86000001;fill:#c2281b;fill-opacity:1;stroke:#c2281b;stroke-width:4.4000001;stroke-miterlimit:4;stroke-dasharray:none;stroke-opacity:1" />
      <path
         inkscape:connector-curvature="0"
         d="m 141.72598,909.41506 c 2.74761,0.0549 5.48039,0.0755 8.20871,-0.27741 0.56098,-0.13807 1.12739,-0.25565 1.68293,-0.4142 4.45667,-1.27188 -1.12038,0.17634 3.44888,-1.09452 1.94539,-0.54108 3.94024,-0.86356 5.92005,-1.24772 3.48306,-0.64057 7.01749,-0.94999 10.55104,-1.13385 1.90992,-0.0905 3.82214,-0.0876 5.73362,-0.0834 2.26671,0.16694 4.47879,0.67621 6.66991,1.25325 1.22937,0.33234 0.61887,0.1819 1.83101,0.45331 0,0 -2.27017,1.57235 -2.27017,1.57235 l 0,0 c -1.21238,-0.28525 -0.60449,-0.12916 -1.82336,-0.46946 -2.1788,-0.57682 -4.38623,-1.06588 -6.64487,-1.18453 -1.89989,-0.004 -3.80056,-0.006 -5.69911,0.0763 -3.51334,0.17708 -7.02715,0.4713 -10.48668,1.13329 -1.98207,0.38429 -3.96838,0.72771 -5.91307,1.27972 -1.16438,0.33051 -2.29768,0.76606 -3.46547,1.08429 -0.56371,0.15361 -1.1384,0.2636 -1.7076,0.39539 -2.75654,0.33097 -5.51619,0.29897 -8.28935,0.29444 0,0 2.25353,-1.63728 2.25353,-1.63728 z"
         id="path6621"
         style="opacity:0.86000001;fill:#c2281b;fill-opacity:1;stroke:#c2281b;stroke-width:4.4000001;stroke-miterlimit:4;stroke-dasharray:none;stroke-opacity:1" />
      <path
         inkscape:connector-curvature="0"
         d="m 146.51152,921.43227 c 3.23598,0.0318 6.47225,0.033 9.70837,0.0374 4.55722,0.005 9.11444,0.004 13.67166,1.8e-4 3.30398,0.0644 6.59754,-0.22882 9.8558,-0.74953 2.26299,-0.36628 4.54971,-0.54704 6.8381,-0.64928 0.99271,-0.0446 1.98666,-0.0517 2.98021,-0.0546 0,0 -2.24485,1.63276 -2.24485,1.63276 l 0,0 c -0.98731,0.007 -1.97476,0.014 -2.96144,0.0545 -2.27567,0.10244 -4.54874,0.28614 -6.79815,0.65761 -3.25095,0.50167 -6.53812,0.74326 -9.82978,0.67799 -4.5574,-0.004 -9.11479,-0.004 -13.67218,1.9e-4 -3.27039,0.004 -6.54093,0.006 -9.81118,0.0374 0,0 2.26344,-1.64449 2.26344,-1.64449 z"
         id="path6623"
         style="opacity:0.86000001;fill:#c2281b;fill-opacity:1;stroke:#c2281b;stroke-width:4.4000001;stroke-miterlimit:4;stroke-dasharray:none;stroke-opacity:1" />
      <path
         inkscape:connector-curvature="0"
         d="m 140.27623,936.69471 c 5.42042,-2.61075 11.21839,-4.22995 17.03588,-5.67284 7.02876,-1.78015 14.23681,-2.54639 21.45598,-2.97861 4.08297,-0.21362 8.1719,-0.26045 12.25963,-0.26504 1.70312,10e-4 3.3964,-0.078 5.07496,0.23962 1.34669,0.40976 2.68352,1.16538 3.61886,2.22814 0.35247,0.5021 0.54714,1.06007 0.71917,1.64031 0,0 -2.44821,1.33517 -2.44821,1.33517 l 0,0 c -0.15157,-0.54327 -0.32108,-1.06698 -0.65235,-1.53433 -0.92009,-1.01046 -2.19756,-1.73464 -3.51608,-2.07617 -1.65599,-0.29436 -3.33246,-0.18741 -5.00808,-0.2267 -4.0487,-0.0257 -8.09896,-0.002 -12.14366,0.20067 -7.19463,0.42089 -14.37623,1.1932 -21.37751,2.97933 -5.88547,1.47722 -11.73669,3.16368 -17.20104,5.85526 0,0 2.18245,-1.72481 2.18245,-1.72481 z"
         id="path6625"
         style="opacity:0.86000001;fill:#c2281b;fill-opacity:1;stroke:#c2281b;stroke-width:4.4000001;stroke-miterlimit:4;stroke-dasharray:none;stroke-opacity:1" />
      <path
         inkscape:connector-curvature="0"
         d="m 138.19045,948.30593 c 3.81295,0.69576 7.10636,3.06677 10.19045,5.2905 2.30888,1.80736 4.39042,3.87749 7.17526,4.91445 1.59247,0.53066 3.19615,0.4611 4.8287,0.24951 2.13997,-0.43975 4.0987,-1.47442 6.02988,-2.46077 0.31239,-0.15006 0.62743,-0.2947 0.93716,-0.45018 0.57011,-0.28619 1.13927,-0.57429 1.7084,-0.86243 0.26526,-0.1343 1.04305,-0.57071 0.78798,-0.41795 -2.75695,1.65102 -1.68646,0.96162 -0.8639,0.4112 1.50847,-1.0089 3.05244,-1.96188 4.58858,-2.92783 2.25119,-1.44176 4.58122,-2.6743 7.08456,-3.59159 1.6113,-0.64285 3.27554,-1.07149 4.98363,-1.3537 1.35292,-0.19448 2.72213,-0.21853 4.08655,-0.22559 1.31676,-0.002 2.63357,0.002 3.95032,0.0106 0.37329,-0.0281 0.74659,-0.0563 1.11989,-0.0844 0,0 -2.2096,1.63019 -2.2096,1.63019 l 0,0 c -0.38394,0.0274 -0.76787,0.0547 -1.15181,0.0821 -1.31905,0.003 -2.63806,-0.008 -3.95711,-0.002 -1.35372,0.0177 -2.71212,0.0409 -4.05225,0.2548 -1.69627,0.29234 -3.34111,0.75925 -4.94428,1.38987 -1.08985,0.41504 -2.15568,0.86153 -3.18596,1.40995 -0.23504,0.12512 -0.92807,0.52201 -0.70104,0.38289 0.50913,-0.31198 1.03188,-0.60118 1.54782,-0.90177 -1.53078,0.97081 -3.07557,1.91571 -4.58684,2.91658 -2.28736,1.59205 -4.78871,2.82849 -7.28718,4.04649 -1.95291,0.97649 -3.92589,2.01749 -6.09838,2.3946 -1.6634,0.20505 -3.30053,0.21077 -4.90482,-0.36313 -2.76226,-1.11157 -4.82172,-3.20426 -7.13163,-5.02524 -3.05931,-2.19877 -6.36892,-4.5877 -10.19791,-5.08 0,0 2.25353,-1.63728 2.25353,-1.63728 z"
         id="path6627"
         style="opacity:0.86000001;fill:#c2281b;fill-opacity:1;stroke:#c2281b;stroke-width:4.4000001;stroke-miterlimit:4;stroke-dasharray:none;stroke-opacity:1" />
      <path
         inkscape:connector-curvature="0"
         d="m 135.36202,966.6907 c 4.14384,0.0397 8.28799,0.041 12.43199,0.0465 5.16459,0.0896 10.33718,-0.14456 15.49862,0.0716 2.22774,0.15436 4.44581,0.40835 6.67641,0.52233 2.54245,0.19394 5.04138,-0.44492 7.55199,-0.77376 3.78577,-0.67222 7.62326,-0.92189 11.45788,-1.10862 1.93955,-0.087 3.86387,-0.2337 5.79066,0.0244 0,0 -2.23425,1.58159 -2.23425,1.58159 l 0,0 c -1.90503,-0.21629 -3.80835,-0.0911 -5.72225,-0.0162 -3.83947,0.18701 -7.67635,0.46735 -11.46594,1.14279 -2.53123,0.34366 -5.05361,0.98011 -7.62127,0.76147 -2.21077,-0.12212 -4.40748,-0.39338 -6.61455,-0.56361 -5.14265,-0.23347 -10.29678,-0.0307 -15.44296,-0.0976 -4.18662,0.006 -8.37339,0.007 -12.55986,0.0465 0,0 2.25353,-1.63729 2.25353,-1.63729 z"
         id="path6629"
         style="opacity:0.86000001;fill:#c2281b;fill-opacity:1;stroke:#c2281b;stroke-width:4.4000001;stroke-miterlimit:4;stroke-dasharray:none;stroke-opacity:1" />
      <path
         inkscape:connector-curvature="0"
         d="m 130.33017,978.70972 c 2.22399,0.0308 4.44208,-0.083 6.65042,0.20225 3.2938,0.5188 6.27272,1.99289 9.10538,3.68424 1.93395,1.26171 3.65383,2.80766 5.75374,3.79336 2.31573,1.02189 4.18748,0.57392 6.50382,-0.20864 5.16644,-2.1981 4.20994,-1.99952 9.38715,-4.94539 1.75,-1.12985 3.62137,-1.91104 5.61616,-2.46378 2.10649,-0.40798 4.21425,-0.81364 6.33424,-1.15233 1.65105,-0.40754 3.31756,-0.71445 5.00585,-0.9121 0.20977,-0.0177 0.41954,-0.0354 0.62932,-0.0531 0,0 -2.23694,1.65553 -2.23694,1.65553 l 0,0 c -0.20711,0.0191 -0.41423,0.0382 -0.62134,0.0573 -1.68022,0.19904 -3.332,0.53861 -4.98236,0.90839 -2.11725,0.33319 -4.22554,0.734 -6.3203,1.18289 -1.965,0.56823 -3.80095,1.38943 -5.5388,2.48324 0.32336,-0.1969 1.30108,-0.77449 0.97008,-0.59071 -3.42255,1.90028 -6.6481,4.23164 -10.38711,5.49411 -2.27814,0.72473 -4.41981,1.15169 -6.66143,0.0642 -2.08244,-1.02335 -3.80209,-2.56719 -5.73378,-3.8361 -2.80798,-1.67967 -5.76845,-3.12195 -9.04502,-3.5864 -2.22302,-0.23279 -4.45411,-0.13915 -6.68757,-0.13607 0,0 2.25849,-1.64089 2.25849,-1.64089 z"
         id="path6631"
         style="opacity:0.86000001;fill:#c2281b;fill-opacity:1;stroke:#c2281b;stroke-width:4.4000001;stroke-miterlimit:4;stroke-dasharray:none;stroke-opacity:1" />
      <path
         inkscape:connector-curvature="0"
         d="m 126.71253,998.50691 c 3.84671,0.14598 7.65778,0.0239 11.47658,-0.45394 4.7399,-0.67763 9.04889,-2.78037 13.40227,-4.63735 2.74053,-1.25196 5.30342,-2.84638 7.96302,-4.25488 1.57623,-0.75746 3.27315,-1.07913 4.99787,-1.2445 1.41056,-0.15538 2.54974,0.32913 3.63773,1.16337 1.35282,0.99781 2.38395,2.31842 3.53435,3.52095 0.43978,0.55964 0.96543,1.03762 1.49068,1.51357 0,0 -2.36715,1.46385 -2.36715,1.46385 l 0,0 c -0.5204,-0.48794 -1.04184,-0.97708 -1.48935,-1.53531 -1.13748,-1.19586 -2.15547,-2.5102 -3.51693,-3.4777 -1.06544,-0.78089 -2.17856,-1.16956 -3.52635,-0.98969 -1.6983,0.17136 -3.36256,0.53321 -4.90025,1.30574 -2.63797,1.41142 -5.19822,2.97651 -7.93231,4.2006 -4.3481,1.85616 -8.67381,3.89667 -13.4102,4.5492 -3.86744,0.46978 -7.72932,0.57308 -11.6234,0.52058 0,0 2.26344,-1.64449 2.26344,-1.64449 z"
         id="path6633"
         style="opacity:0.86000001;fill:#c2281b;fill-opacity:1;stroke:#c2281b;stroke-width:4.4000001;stroke-miterlimit:4;stroke-dasharray:none;stroke-opacity:1" />
      <path
         inkscape:connector-curvature="0"
         d="m 116.18804,1006.994 c 4.05419,0.038 8.10867,0.042 12.16302,0.054 6.54246,0.069 13.088,-0.1007 19.62848,0.086 3.92608,0.1541 7.84819,0.3904 11.7755,0.5128 2.65441,0.072 5.30989,0.072 7.96503,0.072 1.62463,-9e-4 3.24925,0 4.87387,0.01 0,0 -2.20411,1.6016 -2.20411,1.6016 l 0,0 c -1.63185,0 -3.2637,0.012 -4.89556,0.01 -2.6483,-0.01 -5.29693,-0.028 -7.94442,-0.097 -3.89979,-0.1305 -7.79171,-0.4166 -11.69045,-0.5731 -6.53742,-0.1896 -13.07954,-0.053 -19.61896,-0.083 -4.10363,0.011 -8.2074,0.016 -12.31089,0.054 0,0 2.25849,-1.6409 2.25849,-1.6409 z"
         id="path6635"
         style="opacity:0.86000001;fill:#c2281b;fill-opacity:1;stroke:#c2281b;stroke-width:4.4000001;stroke-miterlimit:4;stroke-dasharray:none;stroke-opacity:1" />
    </g>
  </g>
</svg>
